<svg xmlns="http://www.w3.org/2000/svg" width="1032" height="356" viewBox="0 0 1032 356">
  <defs>
    <style>
      .cls-1 {
        fill: none;
      }

      .cls-2, .cls-3 {
        stroke: none;
      }

      .cls-3 {
        fill: #e8e8e8;
      }
    </style>
  </defs>
  <g id="패스_800" data-name="패스 800" class="cls-1">
    <path class="cls-2" d="M178,0H854a178,178,0,0,1,0,356H178A178,178,0,0,1,178,0Z"/>
    <path class="cls-3" d="M 178 40 C 101.906494140625 40 40 101.906494140625 40 178 C 40 254.093505859375 101.906494140625 316 178 316 L 854 316 C 930.093505859375 316 992 254.093505859375 992 178 C 992 101.906494140625 930.093505859375 40 854 40 L 178 40 M 178 0 L 854 0 C 952.306640625 0 1032 79.69332885742188 1032 178 C 1032 276.3066711425781 952.306640625 356 854 356 L 178 356 C 79.693359375 356 0 276.3066711425781 0 178 C 0 79.69332885742188 79.693359375 0 178 0 Z"/>
  </g>
</svg>
